<svg xmlns="http://www.w3.org/2000/svg" width="1024" height="1024" viewBox="0 0 1024 1024"><rect width="1024" height="1024" fill="#f7f8fa"/><rect x="282" y="42" width="460" height="940" rx="10" fill="#fff" stroke="#cdd2d9"/><text x="310" y="89" font-family="Arial" font-size="21" font-weight="800" fill="#292d34" text-anchor="start">FPT Schools</text><text x="656" y="88" font-family="Arial" font-size="12" font-weight="500" fill="#676c74" text-anchor="start">Thông báo</text><circle cx="714" cy="81" r="13" fill="#fff" stroke="#aeb3bb"/><line x1="282" y1="120" x2="742" y2="120" stroke="#eef0f3" stroke-width="1"/><rect x="306" y="147" width="412" height="128" rx="16" fill="#fff3e9" stroke="#efd7c5"/><rect x="306" y="147" width="5" height="128" rx="3" fill="#f27622"/><text x="330" y="180" font-family="Arial" font-size="12" font-weight="500" fill="#858b94" text-anchor="start">Xin chào,</text><text x="330" y="208" font-family="Arial" font-size="18" font-weight="800" fill="#292d34" text-anchor="start">Lê Văn Bình</text><text x="330" y="234" font-family="Arial" font-size="12" font-weight="500" fill="#858b94" text-anchor="start">Đang theo dõi: Lê Minh An · 10A1</text><text x="306" y="318" font-family="Arial" font-size="11" font-weight="800" fill="#858b94" text-anchor="start">HỌC TẬP</text><rect x="306" y="340" width="197" height="128" rx="14" fill="#fff3e9" stroke="#d8dce2"/><text x="326" y="384" font-family="Arial" font-size="15" font-weight="800" fill="#292d34" text-anchor="start">Điểm của con</text><line x1="326" y1="434" x2="474" y2="434" stroke="#eef0f3" stroke-width="1"/><text x="477" y="446" font-family="Arial" font-size="18" font-weight="500" fill="#f27622" text-anchor="end">›</text><rect x="521" y="340" width="197" height="128" rx="14" fill="#f2f7fd" stroke="#d8dce2"/><text x="541" y="384" font-family="Arial" font-size="15" font-weight="800" fill="#292d34" text-anchor="start">Lịch học</text><line x1="541" y1="434" x2="689" y2="434" stroke="#eef0f3" stroke-width="1"/><text x="692" y="446" font-family="Arial" font-size="18" font-weight="500" fill="#f27622" text-anchor="end">›</text><rect x="306" y="512" width="197" height="128" rx="14" fill="#fff8ed" stroke="#d8dce2"/><text x="326" y="556" font-family="Arial" font-size="15" font-weight="800" fill="#292d34" text-anchor="start">Sự kiện</text><line x1="326" y1="606" x2="474" y2="606" stroke="#eef0f3" stroke-width="1"/><text x="477" y="618" font-family="Arial" font-size="18" font-weight="500" fill="#f27622" text-anchor="end">›</text><rect x="521" y="512" width="197" height="128" rx="14" fill="#f1f8f3" stroke="#d8dce2"/><text x="541" y="556" font-family="Arial" font-size="15" font-weight="800" fill="#292d34" text-anchor="start">Câu lạc bộ</text><line x1="541" y1="606" x2="689" y2="606" stroke="#eef0f3" stroke-width="1"/><text x="692" y="618" font-family="Arial" font-size="18" font-weight="500" fill="#f27622" text-anchor="end">›</text><text x="306" y="715" font-family="Arial" font-size="11" font-weight="800" fill="#858b94" text-anchor="start">HÀNH CHÍNH</text><rect x="306" y="738" width="412" height="78" rx="13" fill="#fff3e9" stroke="#efd7c5"/><text x="330" y="772" font-family="Arial" font-size="14" font-weight="800" fill="#292d34" text-anchor="start">Đơn xin nghỉ học</text><text x="330" y="795" font-family="Arial" font-size="11" font-weight="500" fill="#858b94" text-anchor="start">Gửi đơn cho giáo viên chủ nhiệm</text><text x="690" y="783" font-family="Arial" font-size="20" font-weight="500" fill="#f27622" text-anchor="middle">›</text></svg>