<svg xmlns="http://www.w3.org/2000/svg" width="1024" height="1024" viewBox="0 0 1024 1024"><rect width="1024" height="1024" fill="#f7f8fa"/><rect x="282" y="42" width="460" height="940" rx="10" fill="#fff" stroke="#cdd2d9"/><text x="310" y="89" font-family="Arial" font-size="28" font-weight="500" fill="#292d34" text-anchor="start">‹</text><text x="512" y="87" font-family="Arial" font-size="18" font-weight="800" fill="#292d34" text-anchor="middle">Điểm học kỳ</text><line x1="282" y1="120" x2="742" y2="120" stroke="#eef0f3" stroke-width="1"/><rect x="306" y="150" width="412" height="94" rx="13" fill="#fff3e9" stroke="#d8dce2"/><text x="330" y="188" font-family="Arial" font-size="14" font-weight="800" fill="#292d34" text-anchor="start">Học kỳ 1 · 2026–2027</text><text x="330" y="214" font-family="Arial" font-size="11" font-weight="500" fill="#858b94" text-anchor="start">Kết quả học tập</text><text x="688" y="204" font-family="Arial" font-size="20" font-weight="500" fill="#f27622" text-anchor="middle">›</text><rect x="306" y="278" width="412" height="94" rx="13" fill="#f2f7fd" stroke="#d8dce2"/><text x="330" y="316" font-family="Arial" font-size="14" font-weight="800" fill="#292d34" text-anchor="start">Toán</text><text x="330" y="342" font-family="Arial" font-size="11" font-weight="500" fill="#858b94" text-anchor="start">Trung bình môn 8.1</text><text x="688" y="332" font-family="Arial" font-size="20" font-weight="500" fill="#f27622" text-anchor="middle">›</text><rect x="306" y="406" width="412" height="94" rx="13" fill="#f1f8f3" stroke="#d8dce2"/><text x="330" y="444" font-family="Arial" font-size="14" font-weight="800" fill="#292d34" text-anchor="start">Ngữ văn</text><text x="330" y="470" font-family="Arial" font-size="11" font-weight="500" fill="#858b94" text-anchor="start">Trung bình môn --</text><text x="688" y="460" font-family="Arial" font-size="20" font-weight="500" fill="#f27622" text-anchor="middle">›</text><rect x="306" y="534" width="412" height="94" rx="13" fill="#faf4fd" stroke="#d8dce2"/><text x="330" y="572" font-family="Arial" font-size="14" font-weight="800" fill="#292d34" text-anchor="start">Tiếng Anh</text><text x="330" y="598" font-family="Arial" font-size="11" font-weight="500" fill="#858b94" text-anchor="start">Trung bình môn --</text><text x="688" y="588" font-family="Arial" font-size="20" font-weight="500" fill="#f27622" text-anchor="middle">›</text></svg>