<svg xmlns="http://www.w3.org/2000/svg" width="1024" height="1024" viewBox="0 0 1024 1024"><rect width="1024" height="1024" fill="#f7f8fa"/><rect x="282" y="42" width="460" height="940" rx="10" fill="#fff" stroke="#cdd2d9"/><text x="310" y="89" font-family="Arial" font-size="28" font-weight="500" fill="#292d34" text-anchor="start">‹</text><text x="512" y="87" font-family="Arial" font-size="18" font-weight="800" fill="#292d34" text-anchor="middle">Tạo đơn xin nghỉ học</text><line x1="282" y1="120" x2="742" y2="120" stroke="#eef0f3" stroke-width="1"/><text x="306" y="155" font-family="Arial" font-size="11" font-weight="700" fill="#858b94" text-anchor="start">Học sinh</text><rect x="306" y="171" width="412" height="54" rx="10" fill="#fff3e9" stroke="#d8dce2"/><text x="328" y="204" font-family="Arial" font-size="13" font-weight="600" fill="#292d34" text-anchor="start">Lê Minh An</text><text x="306" y="281" font-family="Arial" font-size="11" font-weight="700" fill="#858b94" text-anchor="start">Từ ngày</text><rect x="306" y="297" width="412" height="54" rx="10" fill="#fff" stroke="#d8dce2"/><text x="328" y="330" font-family="Arial" font-size="13" font-weight="600" fill="#292d34" text-anchor="start">15/09/2026</text><text x="306" y="407" font-family="Arial" font-size="11" font-weight="700" fill="#858b94" text-anchor="start">Đến ngày</text><rect x="306" y="423" width="412" height="54" rx="10" fill="#fff" stroke="#d8dce2"/><text x="328" y="456" font-family="Arial" font-size="13" font-weight="600" fill="#292d34" text-anchor="start">16/09/2026</text><text x="306" y="533" font-family="Arial" font-size="11" font-weight="700" fill="#858b94" text-anchor="start">Lý do</text><rect x="306" y="549" width="412" height="88" rx="10" fill="#fff" stroke="#d8dce2"/><text x="328" y="582" font-family="Arial" font-size="13" font-weight="600" fill="#292d34" text-anchor="start">Gia đình có việc riêng.</text><rect x="306" y="725" width="412" height="54" rx="11" fill="#f27622" stroke="#f27622"/><text x="512" y="758" font-family="Arial" font-size="13" font-weight="800" fill="#fff" text-anchor="middle">Gửi đơn</text></svg>