<svg xmlns="http://www.w3.org/2000/svg" width="1024" height="1024" viewBox="0 0 1024 1024"><rect width="1024" height="1024" fill="#f7f8fa"/><rect x="282" y="42" width="460" height="940" rx="10" fill="#fff" stroke="#cdd2d9"/><text x="310" y="89" font-family="Arial" font-size="28" font-weight="500" fill="#292d34" text-anchor="start">‹</text><text x="512" y="87" font-family="Arial" font-size="18" font-weight="800" fill="#292d34" text-anchor="middle">Hồ sơ cá nhân</text><line x1="282" y1="120" x2="742" y2="120" stroke="#eef0f3" stroke-width="1"/><circle cx="512" cy="205" r="54" fill="#fff3e9" stroke="#f27622"/><text x="512" y="217" font-family="Arial" font-size="28" font-weight="800" fill="#f27622" text-anchor="middle">L</text><text x="512" y="288" font-family="Arial" font-size="19" font-weight="800" fill="#292d34" text-anchor="middle">Lê Minh An</text><rect x="306" y="330" width="412" height="62" rx="10" fill="#fff" stroke="#d8dce2"/><text x="330" y="357" font-family="Arial" font-size="10" font-weight="600" fill="#858b94" text-anchor="start">Số điện thoại</text><text x="330" y="378" font-family="Arial" font-size="13" font-weight="700" fill="#292d34" text-anchor="start">0920000001</text><rect x="306" y="414" width="412" height="62" rx="10" fill="#f2f7fd" stroke="#d8dce2"/><text x="330" y="441" font-family="Arial" font-size="10" font-weight="600" fill="#858b94" text-anchor="start">Vai trò</text><text x="330" y="462" font-family="Arial" font-size="13" font-weight="700" fill="#292d34" text-anchor="start">Học sinh</text><rect x="306" y="498" width="412" height="62" rx="10" fill="#fff" stroke="#d8dce2"/><text x="330" y="525" font-family="Arial" font-size="10" font-weight="600" fill="#858b94" text-anchor="start">Mã học sinh</text><text x="330" y="546" font-family="Arial" font-size="13" font-weight="700" fill="#292d34" text-anchor="start">HS001</text><rect x="306" y="582" width="412" height="62" rx="10" fill="#f1f8f3" stroke="#d8dce2"/><text x="330" y="609" font-family="Arial" font-size="10" font-weight="600" fill="#858b94" text-anchor="start">Lớp học</text><text x="330" y="630" font-family="Arial" font-size="13" font-weight="700" fill="#292d34" text-anchor="start">10A1</text><rect x="306" y="724" width="412" height="52" rx="11" fill="#fff3e9" stroke="#efd7c5"/><text x="512" y="756" font-family="Arial" font-size="13" font-weight="800" fill="#f27622" text-anchor="middle">Đăng xuất</text></svg>