<svg xmlns="http://www.w3.org/2000/svg" width="1024" height="1024" viewBox="0 0 1024 1024"><rect width="1024" height="1024" fill="#f7f8fa"/><rect x="282" y="42" width="460" height="940" rx="10" fill="#fff" stroke="#cdd2d9"/><text x="310" y="89" font-family="Arial" font-size="28" font-weight="500" fill="#292d34" text-anchor="start">‹</text><text x="512" y="87" font-family="Arial" font-size="18" font-weight="800" fill="#292d34" text-anchor="middle">Chi tiết điểm</text><line x1="282" y1="120" x2="742" y2="120" stroke="#eef0f3" stroke-width="1"/><rect x="306" y="150" width="412" height="104" rx="14" fill="#fff3e9" stroke="#efd7c5"/><text x="330" y="183" font-family="Arial" font-size="20" font-weight="800" fill="#292d34" text-anchor="start">Toán</text><text x="330" y="211" font-family="Arial" font-size="11" font-weight="500" fill="#858b94" text-anchor="start">Học kỳ 1 · 2026–2027</text><text x="680" y="207" font-family="Arial" font-size="29" font-weight="800" fill="#f27622" text-anchor="end">8.5</text><rect x="306" y="282" width="412" height="414" rx="12" fill="#fff" stroke="#d8dce2"/><rect x="306" y="282" width="412" height="50" rx="12" fill="#fff3e9"/><text x="326" y="313" font-family="Arial" font-size="11" font-weight="800" fill="#292d34" text-anchor="start">Đầu điểm</text><text x="592" y="313" font-family="Arial" font-size="11" font-weight="800" fill="#292d34" text-anchor="middle">Hệ số</text><text x="676" y="313" font-family="Arial" font-size="11" font-weight="800" fill="#292d34" text-anchor="middle">Điểm số</text><line x1="318" y1="333" x2="706" y2="333" stroke="#eef0f3" stroke-width="1"/><text x="326" y="375" font-family="Arial" font-size="12" font-weight="700" fill="#292d34" text-anchor="start">15 phút lần 1</text><text x="592" y="375" font-family="Arial" font-size="12" font-weight="700" fill="#858b94" text-anchor="middle">1</text><text x="676" y="375" font-family="Arial" font-size="13" font-weight="800" fill="#f27622" text-anchor="middle">8.0</text><line x1="318" y1="403" x2="706" y2="403" stroke="#eef0f3" stroke-width="1"/><text x="326" y="445" font-family="Arial" font-size="12" font-weight="700" fill="#292d34" text-anchor="start">15 phút lần 2</text><text x="592" y="445" font-family="Arial" font-size="12" font-weight="700" fill="#858b94" text-anchor="middle">1</text><text x="676" y="445" font-family="Arial" font-size="13" font-weight="800" fill="#f27622" text-anchor="middle">8.5</text><line x1="318" y1="473" x2="706" y2="473" stroke="#eef0f3" stroke-width="1"/><text x="326" y="515" font-family="Arial" font-size="12" font-weight="700" fill="#292d34" text-anchor="start">45 phút</text><text x="592" y="515" font-family="Arial" font-size="12" font-weight="700" fill="#858b94" text-anchor="middle">2</text><text x="676" y="515" font-family="Arial" font-size="13" font-weight="800" fill="#f27622" text-anchor="middle">8.0</text><line x1="318" y1="543" x2="706" y2="543" stroke="#eef0f3" stroke-width="1"/><text x="326" y="585" font-family="Arial" font-size="12" font-weight="700" fill="#292d34" text-anchor="start">Giữa kỳ</text><text x="592" y="585" font-family="Arial" font-size="12" font-weight="700" fill="#858b94" text-anchor="middle">2</text><text x="676" y="585" font-family="Arial" font-size="13" font-weight="800" fill="#f27622" text-anchor="middle">8.5</text><line x1="318" y1="613" x2="706" y2="613" stroke="#eef0f3" stroke-width="1"/><text x="326" y="655" font-family="Arial" font-size="12" font-weight="700" fill="#292d34" text-anchor="start">Cuối kỳ</text><text x="592" y="655" font-family="Arial" font-size="12" font-weight="700" fill="#858b94" text-anchor="middle">3</text><text x="676" y="655" font-family="Arial" font-size="13" font-weight="800" fill="#f27622" text-anchor="middle">9.0</text><rect x="306" y="728" width="412" height="70" rx="12" fill="#fff3e9" stroke="#efd7c5"/><text x="330" y="770" font-family="Arial" font-size="13" font-weight="700" fill="#292d34" text-anchor="start">Trung bình môn</text><text x="686" y="774" font-family="Arial" font-size="24" font-weight="800" fill="#f27622" text-anchor="end">8.5</text></svg>