<svg xmlns="http://www.w3.org/2000/svg" width="1024" height="1024" viewBox="0 0 1024 1024"><rect width="1024" height="1024" fill="#f7f8fa"/><rect x="282" y="42" width="460" height="940" rx="10" fill="#fff" stroke="#cdd2d9"/><text x="310" y="89" font-family="Arial" font-size="28" font-weight="500" fill="#292d34" text-anchor="start">‹</text><text x="512" y="87" font-family="Arial" font-size="18" font-weight="800" fill="#292d34" text-anchor="middle">Chi tiết điểm</text><line x1="282" y1="120" x2="742" y2="120" stroke="#eef0f3" stroke-width="1"/><rect x="306" y="150" width="412" height="114" rx="14" fill="#fff3e9" stroke="#efd7c5"/><text x="330" y="185" font-family="Arial" font-size="20" font-weight="800" fill="#292d34" text-anchor="start">Toán</text><text x="330" y="213" font-family="Arial" font-size="11" font-weight="500" fill="#858b94" text-anchor="start">Học kỳ 1 · 2026–2027</text><text x="680" y="211" font-family="Arial" font-size="29" font-weight="800" fill="#f27622" text-anchor="end">8.1</text><rect x="306" y="300" width="412" height="86" rx="12" fill="#f2f7fd" stroke="#d8dce2"/><text x="330" y="334" font-family="Arial" font-size="13" font-weight="800" fill="#292d34" text-anchor="start">Kiểm tra 15 phút</text><text x="330" y="361" font-family="Arial" font-size="10" font-weight="500" fill="#858b94" text-anchor="start">Trọng số 1</text><text x="686" y="352" font-family="Arial" font-size="22" font-weight="800" fill="#292d34" text-anchor="end">8.0</text><rect x="306" y="415" width="412" height="86" rx="12" fill="#f1f8f3" stroke="#d8dce2"/><text x="330" y="449" font-family="Arial" font-size="13" font-weight="800" fill="#292d34" text-anchor="start">Giữa kỳ</text><text x="330" y="476" font-family="Arial" font-size="10" font-weight="500" fill="#858b94" text-anchor="start">Trọng số 2</text><text x="686" y="467" font-family="Arial" font-size="22" font-weight="800" fill="#292d34" text-anchor="end">7.5</text><rect x="306" y="530" width="412" height="86" rx="12" fill="#faf4fd" stroke="#d8dce2"/><text x="330" y="564" font-family="Arial" font-size="13" font-weight="800" fill="#292d34" text-anchor="start">Cuối kỳ</text><text x="330" y="591" font-family="Arial" font-size="10" font-weight="500" fill="#858b94" text-anchor="start">Trọng số 3</text><text x="686" y="582" font-family="Arial" font-size="22" font-weight="800" fill="#292d34" text-anchor="end">8.5</text><rect x="306" y="690" width="412" height="74" rx="12" fill="#fff3e9" stroke="#efd7c5"/><text x="330" y="722" font-family="Arial" font-size="13" font-weight="700" fill="#292d34" text-anchor="start">Trung bình môn</text><text x="686" y="728" font-family="Arial" font-size="24" font-weight="800" fill="#f27622" text-anchor="end">8.1</text></svg>