<svg xmlns="http://www.w3.org/2000/svg" width="1024" height="1024" viewBox="0 0 1024 1024"><rect width="1024" height="1024" fill="#f7f8fa"/><rect x="32" y="58" width="960" height="846" rx="14" fill="#fff" stroke="#cdd2d9"/><rect x="32" y="58" width="204" height="846" rx="14" fill="#fff" stroke="#cdd2d9"/><text x="62" y="103" font-family="Arial" font-size="19" font-weight="800" fill="#292d34" text-anchor="start">FPT Schools</text><text x="62" y="125" font-family="Arial" font-size="10" font-weight="700" fill="#858b94" text-anchor="start">SCHOOL MANAGEMENT</text><line x1="56" y1="148" x2="212" y2="148" stroke="#eef0f3" stroke-width="1"/><circle cx="59" cy="193" r="6" fill="#fff" stroke="#aeb3bb"/><text x="74" y="198" font-family="Arial" font-size="13" font-weight="500" fill="#555b65" text-anchor="start">Tổng quan</text><circle cx="59" cy="245" r="6" fill="#fff" stroke="#aeb3bb"/><text x="74" y="250" font-family="Arial" font-size="13" font-weight="500" fill="#555b65" text-anchor="start">Lớp giảng dạy</text><circle cx="59" cy="297" r="6" fill="#fff" stroke="#aeb3bb"/><text x="74" y="302" font-family="Arial" font-size="13" font-weight="500" fill="#555b65" text-anchor="start">Lịch dạy</text><circle cx="59" cy="349" r="6" fill="#fff" stroke="#aeb3bb"/><text x="74" y="354" font-family="Arial" font-size="13" font-weight="500" fill="#555b65" text-anchor="start">Quản lý điểm</text><rect x="52" y="380" width="164" height="42" rx="8" fill="#fff3e9" stroke="#f27622"/><rect x="52" y="380" width="4" height="42" rx="2" fill="#f27622"/><circle cx="59" cy="401" r="6" fill="#f27622" stroke="#f27622"/><text x="74" y="406" font-family="Arial" font-size="13" font-weight="700" fill="#d85d10" text-anchor="start">Thông báo</text><circle cx="59" cy="453" r="6" fill="#fff" stroke="#aeb3bb"/><text x="74" y="458" font-family="Arial" font-size="13" font-weight="500" fill="#555b65" text-anchor="start">Chủ nhiệm</text><line x1="56" y1="822" x2="212" y2="822" stroke="#eef0f3" stroke-width="1"/><text x="62" y="850" font-family="Arial" font-size="12" font-weight="700" fill="#292d34" text-anchor="start">Nguyễn Thu Hà</text><text x="62" y="869" font-family="Arial" font-size="10" font-weight="500" fill="#858b94" text-anchor="start">Giáo viên</text><line x1="236" y1="130" x2="992" y2="130" stroke="#eef0f3" stroke-width="1"/><text x="268" y="86" font-family="Arial" font-size="10" font-weight="700" fill="#858b94" text-anchor="start">HỆ THỐNG QUẢN LÝ TRƯỜNG HỌC</text><text x="268" y="110" font-family="Arial" font-size="13" font-weight="700" fill="#292d34" text-anchor="start">Xin chào, Nguyễn Thu Hà</text><rect x="858" y="79" width="104" height="28" rx="14" fill="#fff" stroke="#d8dce2"/><circle cx="878" cy="93" r="4" fill="#f27622"/><text x="889" y="97" font-family="Arial" font-size="10" font-weight="500" fill="#686d75" text-anchor="start">Hoạt động</text><text x="268" y="178" font-family="Arial" font-size="24" font-weight="800" fill="#292d34" text-anchor="start">Gửi thông báo</text><text x="268" y="201" font-family="Arial" font-size="12" font-weight="500" fill="#858b94" text-anchor="start">Thông báo tới các lớp thầy/cô đang phụ trách</text><rect x="268" y="228" width="326" height="534" rx="12" fill="#fff" stroke="#d8dce2"/><text x="290" y="260" font-family="Arial" font-size="15" font-weight="800" fill="#292d34" text-anchor="start">Soạn thông báo</text><text x="290" y="304" font-family="Arial" font-size="11" font-weight="700" fill="#292d34" text-anchor="start">Lớp nhận</text><rect x="290" y="318" width="282" height="48" rx="8" fill="#fafbfc" stroke="#d8dce2"/><text x="290" y="422" font-family="Arial" font-size="11" font-weight="700" fill="#292d34" text-anchor="start">Tiêu đề</text><rect x="290" y="436" width="282" height="48" rx="8" fill="#fafbfc" stroke="#d8dce2"/><text x="290" y="540" font-family="Arial" font-size="11" font-weight="700" fill="#292d34" text-anchor="start">Nội dung</text><rect x="290" y="554" width="282" height="92" rx="8" fill="#fafbfc" stroke="#d8dce2"/><rect x="290" y="685" width="144" height="44" rx="8" fill="#f27622" stroke="#f27622"/><text x="362" y="712" font-family="Arial" font-size="11" font-weight="800" fill="#fff" text-anchor="middle">Gửi thông báo</text><rect x="614" y="228" width="348" height="534" rx="12" fill="#fff" stroke="#d8dce2"/><text x="636" y="260" font-family="Arial" font-size="15" font-weight="800" fill="#292d34" text-anchor="start">Thông báo đã gửi</text><rect x="636" y="290" width="304" height="70" rx="8" fill="#fff3e9" stroke="#eef0f3"/><text x="654" y="319" font-family="Arial" font-size="12" font-weight="700" fill="#292d34" text-anchor="start">Lịch kiểm tra Toán</text><text x="654" y="342" font-family="Arial" font-size="10" font-weight="500" fill="#858b94" text-anchor="start">Lớp 10A1</text><rect x="636" y="386" width="304" height="70" rx="8" fill="#fafbfc" stroke="#eef0f3"/><text x="654" y="415" font-family="Arial" font-size="12" font-weight="700" fill="#292d34" text-anchor="start">Nhắc nộp bài</text><text x="654" y="438" font-family="Arial" font-size="10" font-weight="500" fill="#858b94" text-anchor="start">Lớp 10A1</text><rect x="636" y="482" width="304" height="70" rx="8" fill="#fafbfc" stroke="#eef0f3"/><text x="654" y="511" font-family="Arial" font-size="12" font-weight="700" fill="#292d34" text-anchor="start">Ôn tập giữa kỳ</text><text x="654" y="534" font-family="Arial" font-size="10" font-weight="500" fill="#858b94" text-anchor="start">Lớp 10A1</text><rect x="636" y="578" width="304" height="70" rx="8" fill="#fafbfc" stroke="#eef0f3"/><text x="654" y="607" font-family="Arial" font-size="12" font-weight="700" fill="#292d34" text-anchor="start">Thông báo lớp 10A1</text><text x="654" y="630" font-family="Arial" font-size="10" font-weight="500" fill="#858b94" text-anchor="start">Lớp 10A1</text></svg>