<svg xmlns="http://www.w3.org/2000/svg" width="1024" height="1024" viewBox="0 0 1024 1024"><rect width="1024" height="1024" fill="#f7f8fa"/><rect x="32" y="58" width="960" height="846" rx="14" fill="#fff" stroke="#cdd2d9"/><rect x="32" y="58" width="204" height="846" rx="14" fill="#fff" stroke="#cdd2d9"/><text x="62" y="103" font-family="Arial" font-size="19" font-weight="800" fill="#292d34" text-anchor="start">FPT Schools</text><text x="62" y="125" font-family="Arial" font-size="10" font-weight="700" fill="#858b94" text-anchor="start">SCHOOL MANAGEMENT</text><line x1="56" y1="148" x2="212" y2="148" stroke="#eef0f3" stroke-width="1"/><circle cx="59" cy="193" r="6" fill="#fff" stroke="#aeb3bb"/><text x="74" y="198" font-family="Arial" font-size="13" font-weight="500" fill="#555b65" text-anchor="start">Tổng quan</text><circle cx="59" cy="245" r="6" fill="#fff" stroke="#aeb3bb"/><text x="74" y="250" font-family="Arial" font-size="13" font-weight="500" fill="#555b65" text-anchor="start">Lớp giảng dạy</text><circle cx="59" cy="297" r="6" fill="#fff" stroke="#aeb3bb"/><text x="74" y="302" font-family="Arial" font-size="13" font-weight="500" fill="#555b65" text-anchor="start">Lịch dạy</text><rect x="52" y="328" width="164" height="42" rx="8" fill="#fff3e9" stroke="#f27622"/><rect x="52" y="328" width="4" height="42" rx="2" fill="#f27622"/><circle cx="59" cy="349" r="6" fill="#f27622" stroke="#f27622"/><text x="74" y="354" font-family="Arial" font-size="13" font-weight="700" fill="#d85d10" text-anchor="start">Quản lý điểm</text><circle cx="59" cy="401" r="6" fill="#fff" stroke="#aeb3bb"/><text x="74" y="406" font-family="Arial" font-size="13" font-weight="500" fill="#555b65" text-anchor="start">Thông báo</text><circle cx="59" cy="453" r="6" fill="#fff" stroke="#aeb3bb"/><text x="74" y="458" font-family="Arial" font-size="13" font-weight="500" fill="#555b65" text-anchor="start">Chủ nhiệm</text><line x1="56" y1="822" x2="212" y2="822" stroke="#eef0f3" stroke-width="1"/><text x="62" y="850" font-family="Arial" font-size="12" font-weight="700" fill="#292d34" text-anchor="start">Nguyễn Thu Hà</text><text x="62" y="869" font-family="Arial" font-size="10" font-weight="500" fill="#858b94" text-anchor="start">Giáo viên</text><line x1="236" y1="130" x2="992" y2="130" stroke="#eef0f3" stroke-width="1"/><text x="268" y="86" font-family="Arial" font-size="10" font-weight="700" fill="#858b94" text-anchor="start">HỆ THỐNG QUẢN LÝ TRƯỜNG HỌC</text><text x="268" y="110" font-family="Arial" font-size="13" font-weight="700" fill="#292d34" text-anchor="start">Xin chào, Nguyễn Thu Hà</text><rect x="858" y="79" width="104" height="28" rx="14" fill="#fff" stroke="#d8dce2"/><circle cx="878" cy="93" r="4" fill="#f27622"/><text x="889" y="97" font-family="Arial" font-size="10" font-weight="500" fill="#686d75" text-anchor="start">Hoạt động</text><text x="268" y="178" font-family="Arial" font-size="24" font-weight="800" fill="#292d34" text-anchor="start">Quản lý điểm</text><text x="268" y="201" font-family="Arial" font-size="12" font-weight="500" fill="#858b94" text-anchor="start">Mỗi đầu điểm có một giá trị và hệ số riêng</text><rect x="268" y="228" width="694" height="548" rx="12" fill="#fff" stroke="#d8dce2"/><text x="292" y="263" font-family="Arial" font-size="15" font-weight="800" fill="#292d34" text-anchor="start">Điểm của Lê Minh An</text><rect x="290" y="286" width="650" height="46" rx="8" fill="#f5f6f8"/><text x="312" y="315" font-family="Arial" font-size="11" font-weight="700" fill="#292d34" text-anchor="start">Đầu điểm</text><text x="700" y="315" font-family="Arial" font-size="11" font-weight="700" fill="#292d34" text-anchor="middle">Hệ số</text><text x="870" y="315" font-family="Arial" font-size="11" font-weight="700" fill="#292d34" text-anchor="middle">Điểm số</text><line x1="300" y1="333" x2="930" y2="333" stroke="#eef0f3" stroke-width="1"/><text x="312" y="376" font-family="Arial" font-size="12" font-weight="700" fill="#292d34" text-anchor="start">Kiểm tra 15 phút lần 1</text><text x="700" y="376" font-family="Arial" font-size="12" font-weight="700" fill="#858b94" text-anchor="middle">1</text><rect x="824" y="348" width="92" height="42" rx="8" fill="#fff" stroke="#d8dce2"/><text x="870" y="375" font-family="Arial" font-size="12" font-weight="800" fill="#292d34" text-anchor="middle">8.0</text><line x1="300" y1="407" x2="930" y2="407" stroke="#eef0f3" stroke-width="1"/><text x="312" y="450" font-family="Arial" font-size="12" font-weight="700" fill="#292d34" text-anchor="start">Kiểm tra 15 phút lần 2</text><text x="700" y="450" font-family="Arial" font-size="12" font-weight="700" fill="#858b94" text-anchor="middle">1</text><rect x="824" y="422" width="92" height="42" rx="8" fill="#fff" stroke="#d8dce2"/><text x="870" y="449" font-family="Arial" font-size="12" font-weight="800" fill="#292d34" text-anchor="middle">8.5</text><line x1="300" y1="481" x2="930" y2="481" stroke="#eef0f3" stroke-width="1"/><text x="312" y="524" font-family="Arial" font-size="12" font-weight="700" fill="#292d34" text-anchor="start">Kiểm tra 45 phút</text><text x="700" y="524" font-family="Arial" font-size="12" font-weight="700" fill="#858b94" text-anchor="middle">2</text><rect x="824" y="496" width="92" height="42" rx="8" fill="#fff" stroke="#d8dce2"/><text x="870" y="523" font-family="Arial" font-size="12" font-weight="800" fill="#292d34" text-anchor="middle">8.0</text><line x1="300" y1="555" x2="930" y2="555" stroke="#eef0f3" stroke-width="1"/><text x="312" y="598" font-family="Arial" font-size="12" font-weight="700" fill="#292d34" text-anchor="start">Giữa kỳ</text><text x="700" y="598" font-family="Arial" font-size="12" font-weight="700" fill="#858b94" text-anchor="middle">2</text><rect x="824" y="570" width="92" height="42" rx="8" fill="#fff" stroke="#d8dce2"/><text x="870" y="597" font-family="Arial" font-size="12" font-weight="800" fill="#292d34" text-anchor="middle">8.5</text><line x1="300" y1="629" x2="930" y2="629" stroke="#eef0f3" stroke-width="1"/><text x="312" y="672" font-family="Arial" font-size="12" font-weight="700" fill="#292d34" text-anchor="start">Cuối kỳ</text><text x="700" y="672" font-family="Arial" font-size="12" font-weight="700" fill="#858b94" text-anchor="middle">3</text><rect x="824" y="644" width="92" height="42" rx="8" fill="#fff3e9" stroke="#f27622"/><text x="870" y="671" font-family="Arial" font-size="12" font-weight="800" fill="#f27622" text-anchor="middle">9.0</text><rect x="806" y="720" width="134" height="42" rx="8" fill="#f27622" stroke="#f27622"/><text x="873" y="746" font-family="Arial" font-size="11" font-weight="800" fill="#fff" text-anchor="middle">Lưu điểm</text></svg>