<svg xmlns="http://www.w3.org/2000/svg" width="1024" height="1024" viewBox="0 0 1024 1024"><rect width="1024" height="1024" fill="#f7f8fa"/><rect x="32" y="58" width="960" height="846" rx="14" fill="#fff" stroke="#cdd2d9"/><rect x="32" y="58" width="204" height="846" rx="14" fill="#fff" stroke="#cdd2d9"/><text x="62" y="103" font-family="Arial" font-size="19" font-weight="800" fill="#292d34" text-anchor="start">FPT Schools</text><text x="62" y="125" font-family="Arial" font-size="10" font-weight="700" fill="#858b94" text-anchor="start">SCHOOL MANAGEMENT</text><line x1="56" y1="148" x2="212" y2="148" stroke="#eef0f3" stroke-width="1"/><circle cx="59" cy="193" r="6" fill="#fff" stroke="#aeb3bb"/><text x="74" y="198" font-family="Arial" font-size="13" font-weight="500" fill="#555b65" text-anchor="start">Tổng quan</text><circle cx="59" cy="245" r="6" fill="#fff" stroke="#aeb3bb"/><text x="74" y="250" font-family="Arial" font-size="13" font-weight="500" fill="#555b65" text-anchor="start">Lớp giảng dạy</text><rect x="52" y="276" width="164" height="42" rx="8" fill="#fff3e9" stroke="#f27622"/><rect x="52" y="276" width="4" height="42" rx="2" fill="#f27622"/><circle cx="59" cy="297" r="6" fill="#f27622" stroke="#f27622"/><text x="74" y="302" font-family="Arial" font-size="13" font-weight="700" fill="#d85d10" text-anchor="start">Lịch dạy</text><circle cx="59" cy="349" r="6" fill="#fff" stroke="#aeb3bb"/><text x="74" y="354" font-family="Arial" font-size="13" font-weight="500" fill="#555b65" text-anchor="start">Quản lý điểm</text><circle cx="59" cy="401" r="6" fill="#fff" stroke="#aeb3bb"/><text x="74" y="406" font-family="Arial" font-size="13" font-weight="500" fill="#555b65" text-anchor="start">Thông báo</text><circle cx="59" cy="453" r="6" fill="#fff" stroke="#aeb3bb"/><text x="74" y="458" font-family="Arial" font-size="13" font-weight="500" fill="#555b65" text-anchor="start">Chủ nhiệm</text><line x1="56" y1="822" x2="212" y2="822" stroke="#eef0f3" stroke-width="1"/><text x="62" y="850" font-family="Arial" font-size="12" font-weight="700" fill="#292d34" text-anchor="start">Nguyễn Thu Hà</text><text x="62" y="869" font-family="Arial" font-size="10" font-weight="500" fill="#858b94" text-anchor="start">Giáo viên</text><line x1="236" y1="130" x2="992" y2="130" stroke="#eef0f3" stroke-width="1"/><text x="268" y="86" font-family="Arial" font-size="10" font-weight="700" fill="#858b94" text-anchor="start">HỆ THỐNG QUẢN LÝ TRƯỜNG HỌC</text><text x="268" y="110" font-family="Arial" font-size="13" font-weight="700" fill="#292d34" text-anchor="start">Xin chào, Nguyễn Thu Hà</text><rect x="858" y="79" width="104" height="28" rx="14" fill="#fff" stroke="#d8dce2"/><circle cx="878" cy="93" r="4" fill="#f27622"/><text x="889" y="97" font-family="Arial" font-size="10" font-weight="500" fill="#686d75" text-anchor="start">Hoạt động</text><text x="268" y="178" font-family="Arial" font-size="24" font-weight="800" fill="#292d34" text-anchor="start">Lịch dạy</text><text x="268" y="201" font-family="Arial" font-size="12" font-weight="500" fill="#858b94" text-anchor="start">Thời khóa biểu cá nhân theo tuần</text><rect x="268" y="226" width="300" height="42" rx="8" fill="#fafbfc" stroke="#d8dce2"/><text x="290" y="252" font-family="Arial" font-size="11" font-weight="500" fill="#858b94" text-anchor="start">Tìm kiếm...</text><rect x="826" y="226" width="136" height="42" rx="8" fill="#f27622" stroke="#f27622"/><text x="894" y="252" font-family="Arial" font-size="11" font-weight="800" fill="#fff" text-anchor="middle">Chọn lớp</text><rect x="268" y="290" width="694" height="510" rx="10" fill="#fff" stroke="#d8dce2"/><rect x="268" y="290" width="694" height="48" rx="10" fill="#f5f6f8"/><text x="290" y="319" font-family="Arial" font-size="11" font-weight="700" fill="#555b65" text-anchor="start">Ngày</text><text x="398.3333333333333" y="319" font-family="Arial" font-size="11" font-weight="700" fill="#555b65" text-anchor="start">Tiết</text><text x="506.66666666666663" y="319" font-family="Arial" font-size="11" font-weight="700" fill="#555b65" text-anchor="start">Môn học</text><text x="615" y="319" font-family="Arial" font-size="11" font-weight="700" fill="#555b65" text-anchor="start">Lớp</text><text x="723.3333333333333" y="319" font-family="Arial" font-size="11" font-weight="700" fill="#555b65" text-anchor="start">Phòng</text><text x="831.6666666666666" y="319" font-family="Arial" font-size="11" font-weight="700" fill="#555b65" text-anchor="start">Thời gian</text><line x1="284" y1="339" x2="946" y2="339" stroke="#eef0f3" stroke-width="1"/><circle cx="302" cy="374" r="15" fill="#fff3e9" stroke="#f0d5c0"/><line x1="330" y1="369" x2="390" y2="369" stroke="#adb2ba" stroke-width="1"/><line x1="438.3333333333333" y1="369" x2="498.3333333333333" y2="369" stroke="#adb2ba" stroke-width="1"/><line x1="546.6666666666666" y1="369" x2="606.6666666666666" y2="369" stroke="#adb2ba" stroke-width="1"/><line x1="655" y1="369" x2="715" y2="369" stroke="#adb2ba" stroke-width="1"/><line x1="763.3333333333333" y1="369" x2="823.3333333333333" y2="369" stroke="#adb2ba" stroke-width="1"/><line x1="871.6666666666666" y1="369" x2="931.6666666666666" y2="369" stroke="#adb2ba" stroke-width="1"/><line x1="284" y1="411" x2="946" y2="411" stroke="#eef0f3" stroke-width="1"/><circle cx="302" cy="446" r="15" fill="#f2f7fd" stroke="#d5e2f1"/><line x1="330" y1="441" x2="390" y2="441" stroke="#adb2ba" stroke-width="1"/><line x1="438.3333333333333" y1="441" x2="498.3333333333333" y2="441" stroke="#adb2ba" stroke-width="1"/><line x1="546.6666666666666" y1="441" x2="606.6666666666666" y2="441" stroke="#adb2ba" stroke-width="1"/><line x1="655" y1="441" x2="715" y2="441" stroke="#adb2ba" stroke-width="1"/><line x1="763.3333333333333" y1="441" x2="823.3333333333333" y2="441" stroke="#adb2ba" stroke-width="1"/><line x1="871.6666666666666" y1="441" x2="931.6666666666666" y2="441" stroke="#adb2ba" stroke-width="1"/><line x1="284" y1="483" x2="946" y2="483" stroke="#eef0f3" stroke-width="1"/><circle cx="302" cy="518" r="15" fill="#fff3e9" stroke="#f0d5c0"/><line x1="330" y1="513" x2="390" y2="513" stroke="#adb2ba" stroke-width="1"/><line x1="438.3333333333333" y1="513" x2="498.3333333333333" y2="513" stroke="#adb2ba" stroke-width="1"/><line x1="546.6666666666666" y1="513" x2="606.6666666666666" y2="513" stroke="#adb2ba" stroke-width="1"/><line x1="655" y1="513" x2="715" y2="513" stroke="#adb2ba" stroke-width="1"/><line x1="763.3333333333333" y1="513" x2="823.3333333333333" y2="513" stroke="#adb2ba" stroke-width="1"/><line x1="871.6666666666666" y1="513" x2="931.6666666666666" y2="513" stroke="#adb2ba" stroke-width="1"/><line x1="284" y1="555" x2="946" y2="555" stroke="#eef0f3" stroke-width="1"/><circle cx="302" cy="590" r="15" fill="#f2f7fd" stroke="#d5e2f1"/><line x1="330" y1="585" x2="390" y2="585" stroke="#adb2ba" stroke-width="1"/><line x1="438.3333333333333" y1="585" x2="498.3333333333333" y2="585" stroke="#adb2ba" stroke-width="1"/><line x1="546.6666666666666" y1="585" x2="606.6666666666666" y2="585" stroke="#adb2ba" stroke-width="1"/><line x1="655" y1="585" x2="715" y2="585" stroke="#adb2ba" stroke-width="1"/><line x1="763.3333333333333" y1="585" x2="823.3333333333333" y2="585" stroke="#adb2ba" stroke-width="1"/><line x1="871.6666666666666" y1="585" x2="931.6666666666666" y2="585" stroke="#adb2ba" stroke-width="1"/><line x1="284" y1="627" x2="946" y2="627" stroke="#eef0f3" stroke-width="1"/><circle cx="302" cy="662" r="15" fill="#fff3e9" stroke="#f0d5c0"/><line x1="330" y1="657" x2="390" y2="657" stroke="#adb2ba" stroke-width="1"/><line x1="438.3333333333333" y1="657" x2="498.3333333333333" y2="657" stroke="#adb2ba" stroke-width="1"/><line x1="546.6666666666666" y1="657" x2="606.6666666666666" y2="657" stroke="#adb2ba" stroke-width="1"/><line x1="655" y1="657" x2="715" y2="657" stroke="#adb2ba" stroke-width="1"/><line x1="763.3333333333333" y1="657" x2="823.3333333333333" y2="657" stroke="#adb2ba" stroke-width="1"/><line x1="871.6666666666666" y1="657" x2="931.6666666666666" y2="657" stroke="#adb2ba" stroke-width="1"/><line x1="284" y1="699" x2="946" y2="699" stroke="#eef0f3" stroke-width="1"/><circle cx="302" cy="734" r="15" fill="#f2f7fd" stroke="#d5e2f1"/><line x1="330" y1="729" x2="390" y2="729" stroke="#adb2ba" stroke-width="1"/><line x1="438.3333333333333" y1="729" x2="498.3333333333333" y2="729" stroke="#adb2ba" stroke-width="1"/><line x1="546.6666666666666" y1="729" x2="606.6666666666666" y2="729" stroke="#adb2ba" stroke-width="1"/><line x1="655" y1="729" x2="715" y2="729" stroke="#adb2ba" stroke-width="1"/><line x1="763.3333333333333" y1="729" x2="823.3333333333333" y2="729" stroke="#adb2ba" stroke-width="1"/><line x1="871.6666666666666" y1="729" x2="931.6666666666666" y2="729" stroke="#adb2ba" stroke-width="1"/></svg>