<svg xmlns="http://www.w3.org/2000/svg" width="1024" height="1024" viewBox="0 0 1024 1024">
  <rect width="1024" height="1024" fill="#f7f8fa"/>
  <rect x="32" y="58" width="960" height="846" rx="14" fill="#ffffff" stroke="#d8dce2" stroke-width="2"/>
  <rect x="32" y="58" width="204" height="846" rx="14" fill="#ffffff" stroke="#d8dce2" stroke-width="2"/>
  <text x="62" y="103" font-family="Arial" font-size="19" font-weight="800" fill="#252932">FPT Schools</text>
  <text x="62" y="125" font-family="Arial" font-size="10" font-weight="700" fill="#9a9fa8">SCHOOL MANAGEMENT</text>
  <line x1="56" y1="148" x2="212" y2="148" stroke="#e4e6ea"/>
  <rect x="52" y="172" width="164" height="42" rx="8" fill="#fff3e9"/>
  <rect x="52" y="172" width="4" height="42" rx="2" fill="#f27622"/>
  <text x="74" y="198" font-family="Arial" font-size="13" font-weight="700" fill="#d85d10">Tổng quan</text>
  <g font-family="Arial" font-size="13" fill="#555b65">
    <text x="74" y="250">Giáo viên</text><text x="74" y="302">Học sinh</text>
    <text x="74" y="354">Phụ huynh</text><text x="74" y="406">Lớp học</text>
    <text x="74" y="458">Môn học</text><text x="74" y="510">Phân công</text>
    <text x="74" y="562">Thời khóa biểu</text>
  </g>
  <g fill="none" stroke="#aeb3bb" stroke-width="1.5">
    <circle cx="59" cy="246" r="6"/><circle cx="59" cy="298" r="6"/><circle cx="59" cy="350" r="6"/>
    <circle cx="59" cy="402" r="6"/><circle cx="59" cy="454" r="6"/><circle cx="59" cy="506" r="6"/><circle cx="59" cy="558" r="6"/>
  </g>
  <line x1="56" y1="822" x2="212" y2="822" stroke="#e4e6ea"/>
  <text x="62" y="850" font-family="Arial" font-size="12" font-weight="700" fill="#353a43">Quản trị FPT Schools</text>
  <text x="62" y="869" font-family="Arial" font-size="10" fill="#999ea7">Quản trị viên</text>

  <rect x="236" y="58" width="756" height="72" fill="#ffffff"/>
  <line x1="236" y1="130" x2="992" y2="130" stroke="#e4e6ea"/>
  <text x="268" y="86" font-family="Arial" font-size="10" font-weight="700" fill="#9a9fa8">HỆ THỐNG QUẢN LÝ TRƯỜNG HỌC</text>
  <text x="268" y="110" font-family="Arial" font-size="13" font-weight="700" fill="#30343b">Xin chào, Quản trị FPT Schools</text>
  <rect x="858" y="79" width="104" height="28" rx="14" fill="#ffffff" stroke="#d8dce2"/>
  <circle cx="878" cy="93" r="4" fill="#f27622"/><text x="889" y="97" font-family="Arial" font-size="10" fill="#686d75">Hoạt động</text>

  <text x="268" y="178" font-family="Arial" font-size="24" font-weight="800" fill="#242832">Tổng quan</text>
  <text x="268" y="201" font-family="Arial" font-size="12" fill="#8a9099">Theo dõi nhanh tình hình vận hành trường học</text>

  <g font-family="Arial">
    <g><rect x="268" y="228" width="160" height="100" rx="12" fill="#fff5ed" stroke="#f2d5bf"/><rect x="268" y="228" width="160" height="4" rx="2" fill="#f27622"/><text x="288" y="256" font-size="11" fill="#b85b1d">Giáo viên</text><text x="288" y="294" font-size="28" font-weight="800" fill="#d65c12">5</text><text x="288" y="314" font-size="9" fill="#9c806d">Tài khoản đang quản lý</text></g>
    <g><rect x="444" y="228" width="160" height="100" rx="12" fill="#f2f7fd" stroke="#d5e2f1"/><rect x="444" y="228" width="160" height="4" rx="2" fill="#6c96c7"/><text x="464" y="256" font-size="11" fill="#597da7">Học sinh</text><text x="464" y="294" font-size="28" font-weight="800" fill="#557da9">6</text><text x="464" y="314" font-size="9" fill="#7e8fa2">Đang trong trường</text></g>
    <g><rect x="620" y="228" width="160" height="100" rx="12" fill="#f1f8f3" stroke="#d5e7da"/><rect x="620" y="228" width="160" height="4" rx="2" fill="#69a879"/><text x="640" y="256" font-size="11" fill="#5d8e69">Lớp học</text><text x="640" y="294" font-size="28" font-weight="800" fill="#548d62">3</text><text x="640" y="314" font-size="9" fill="#7d9382">Năm học hiện tại</text></g>
    <g><rect x="796" y="228" width="166" height="100" rx="12" fill="#faf4fd" stroke="#e6d8eb"/><rect x="796" y="228" width="166" height="4" rx="2" fill="#a984b7"/><text x="816" y="256" font-size="11" fill="#856794">Môn học</text><text x="816" y="294" font-size="28" font-weight="800" fill="#80618f">10</text><text x="816" y="314" font-size="9" fill="#92849a">Đang được sử dụng</text></g>
  </g>

  <rect x="268" y="350" width="438" height="318" rx="12" fill="#fff" stroke="#dfe2e7"/>
  <text x="290" y="382" font-family="Arial" font-size="14" font-weight="800" fill="#30343b">Lớp học gần đây</text>
  <text x="290" y="401" font-family="Arial" font-size="10" fill="#969ba4">Thông tin lớp và giáo viên chủ nhiệm</text>
  <line x1="290" y1="420" x2="684" y2="420" stroke="#e7e9ed"/>
  <g font-family="Arial"><g fill="#30343b" font-size="12" font-weight="700"><text x="316" y="462">10A1</text><text x="316" y="524">10A2</text><text x="316" y="586">11A1</text></g><g fill="#969ba4" font-size="10"><text x="316" y="480">Năm học 2026–2027</text><text x="316" y="542">Năm học 2026–2027</text><text x="316" y="604">Năm học 2026–2027</text></g><g fill="#686d75" font-size="10"><text x="574" y="470">Nguyễn Thu Hà</text><text x="574" y="532">Phạm Hoàng Lan</text><text x="574" y="594">Đỗ Mai Phương</text></g></g>
  <line x1="290" y1="493" x2="684" y2="493" stroke="#eceef1"/><line x1="290" y1="555" x2="684" y2="555" stroke="#eceef1"/>

  <rect x="724" y="350" width="238" height="318" rx="12" fill="#fff" stroke="#dfe2e7"/>
  <text x="746" y="382" font-family="Arial" font-size="14" font-weight="800" fill="#30343b">Khối lượng lịch học</text>
  <text x="746" y="401" font-family="Arial" font-size="10" fill="#969ba4">Các tiết đã được xếp lịch</text>
  <text x="746" y="486" font-family="Arial" font-size="42" font-weight="800" fill="#242832">18</text>
  <line x1="746" y1="520" x2="938" y2="520" stroke="#f27622" stroke-width="4" stroke-linecap="round"/>
  <text x="746" y="548" font-family="Arial" font-size="10" fill="#858b94">Tiếp tục xếp lịch tại mục Thời khóa biểu.</text>
</svg>
