<svg xmlns="http://www.w3.org/2000/svg" width="1024" height="1024" viewBox="0 0 1024 1024"><rect width="1024" height="1024" fill="#f7f8fa"/><rect x="32" y="58" width="960" height="846" rx="14" fill="#fff" stroke="#cdd2d9"/><rect x="32" y="58" width="204" height="846" rx="14" fill="#fff" stroke="#cdd2d9"/><text x="62" y="103" font-family="Arial" font-size="19" font-weight="800" fill="#292d34" text-anchor="start">FPT Schools</text><text x="62" y="125" font-family="Arial" font-size="10" font-weight="700" fill="#858b94" text-anchor="start">SCHOOL MANAGEMENT</text><line x1="56" y1="148" x2="212" y2="148" stroke="#eef0f3" stroke-width="1"/><rect x="52" y="172" width="164" height="42" rx="8" fill="#fff3e9" stroke="#f27622"/><rect x="52" y="172" width="4" height="42" rx="2" fill="#f27622"/><circle cx="59" cy="193" r="6" fill="#f27622" stroke="#f27622"/><text x="74" y="198" font-family="Arial" font-size="13" font-weight="700" fill="#d85d10" text-anchor="start">Tổng quan</text><circle cx="59" cy="245" r="6" fill="#fff" stroke="#aeb3bb"/><text x="74" y="250" font-family="Arial" font-size="13" font-weight="500" fill="#555b65" text-anchor="start">Lớp giảng dạy</text><circle cx="59" cy="297" r="6" fill="#fff" stroke="#aeb3bb"/><text x="74" y="302" font-family="Arial" font-size="13" font-weight="500" fill="#555b65" text-anchor="start">Lịch dạy</text><circle cx="59" cy="349" r="6" fill="#fff" stroke="#aeb3bb"/><text x="74" y="354" font-family="Arial" font-size="13" font-weight="500" fill="#555b65" text-anchor="start">Quản lý điểm</text><circle cx="59" cy="401" r="6" fill="#fff" stroke="#aeb3bb"/><text x="74" y="406" font-family="Arial" font-size="13" font-weight="500" fill="#555b65" text-anchor="start">Thông báo</text><circle cx="59" cy="453" r="6" fill="#fff" stroke="#aeb3bb"/><text x="74" y="458" font-family="Arial" font-size="13" font-weight="500" fill="#555b65" text-anchor="start">Chủ nhiệm</text><line x1="56" y1="822" x2="212" y2="822" stroke="#eef0f3" stroke-width="1"/><text x="62" y="850" font-family="Arial" font-size="12" font-weight="700" fill="#292d34" text-anchor="start">Nguyễn Thu Hà</text><text x="62" y="869" font-family="Arial" font-size="10" font-weight="500" fill="#858b94" text-anchor="start">Giáo viên</text><line x1="236" y1="130" x2="992" y2="130" stroke="#eef0f3" stroke-width="1"/><text x="268" y="86" font-family="Arial" font-size="10" font-weight="700" fill="#858b94" text-anchor="start">HỆ THỐNG QUẢN LÝ TRƯỜNG HỌC</text><text x="268" y="110" font-family="Arial" font-size="13" font-weight="700" fill="#292d34" text-anchor="start">Xin chào, Nguyễn Thu Hà</text><rect x="858" y="79" width="104" height="28" rx="14" fill="#fff" stroke="#d8dce2"/><circle cx="878" cy="93" r="4" fill="#f27622"/><text x="889" y="97" font-family="Arial" font-size="10" font-weight="500" fill="#686d75" text-anchor="start">Hoạt động</text><text x="268" y="178" font-family="Arial" font-size="24" font-weight="800" fill="#292d34" text-anchor="start">Tổng quan giảng dạy</text><text x="268" y="201" font-family="Arial" font-size="12" font-weight="500" fill="#858b94" text-anchor="start">Chào Nguyễn Thu Hà, chúc thầy/cô một ngày làm việc hiệu quả.</text><rect x="268" y="228" width="160" height="100" rx="12" fill="#f2f7fd" stroke="#628fbe"/><text x="288" y="256" font-family="Arial" font-size="11" font-weight="600" fill="#628fbe" text-anchor="start">Lớp phụ trách</text><text x="288" y="295" font-family="Arial" font-size="28" font-weight="800" fill="#628fbe" text-anchor="start">3</text><rect x="444" y="228" width="160" height="100" rx="12" fill="#faf4fd" stroke="#9473a2"/><text x="464" y="256" font-family="Arial" font-size="11" font-weight="600" fill="#9473a2" text-anchor="start">Môn giảng dạy</text><text x="464" y="295" font-family="Arial" font-size="28" font-weight="800" fill="#9473a2" text-anchor="start">2</text><rect x="620" y="228" width="160" height="100" rx="12" fill="#fff3e9" stroke="#f27622"/><text x="640" y="256" font-family="Arial" font-size="11" font-weight="600" fill="#f27622" text-anchor="start">Tiết mỗi tuần</text><text x="640" y="295" font-family="Arial" font-size="28" font-weight="800" fill="#f27622" text-anchor="start">8</text><rect x="796" y="228" width="160" height="100" rx="12" fill="#f1f8f3" stroke="#659b73"/><text x="816" y="256" font-family="Arial" font-size="11" font-weight="600" fill="#659b73" text-anchor="start">Lớp chủ nhiệm</text><text x="816" y="295" font-family="Arial" font-size="28" font-weight="800" fill="#659b73" text-anchor="start">1</text><rect x="268" y="350" width="438" height="318" rx="12" fill="#fff" stroke="#d8dce2"/><text x="290" y="382" font-family="Arial" font-size="14" font-weight="800" fill="#292d34" text-anchor="start">Phân công của tôi</text><text x="290" y="401" font-family="Arial" font-size="10" font-weight="500" fill="#858b94" text-anchor="start">Lớp và môn học đang phụ trách</text><rect x="290" y="430" width="394" height="46" rx="8" fill="#fff3e9" stroke="#eef0f3"/><text x="310" y="458" font-family="Arial" font-size="12" font-weight="700" fill="#292d34" text-anchor="start">Toán · Lớp 10A1</text><rect x="290" y="492" width="394" height="46" rx="8" fill="#fafbfc" stroke="#eef0f3"/><text x="310" y="520" font-family="Arial" font-size="12" font-weight="700" fill="#292d34" text-anchor="start">Toán · Lớp 10A2</text><rect x="290" y="554" width="394" height="46" rx="8" fill="#fafbfc" stroke="#eef0f3"/><text x="310" y="582" font-family="Arial" font-size="12" font-weight="700" fill="#292d34" text-anchor="start">Tiếng Anh · Lớp 10A1</text><rect x="724" y="350" width="238" height="318" rx="12" fill="#fff" stroke="#d8dce2"/><text x="746" y="382" font-family="Arial" font-size="14" font-weight="800" fill="#292d34" text-anchor="start">Ghi chú nhanh</text><text x="746" y="401" font-family="Arial" font-size="10" font-weight="500" fill="#858b94" text-anchor="start">Quyền theo vai trò</text><circle cx="754" cy="444" r="4" fill="#f27622"/><text x="769" y="448" font-family="Arial" font-size="11" font-weight="500" fill="#292d34" text-anchor="start">Xem học sinh các lớp</text><circle cx="754" cy="489" r="4" fill="#f27622"/><text x="769" y="493" font-family="Arial" font-size="11" font-weight="500" fill="#292d34" text-anchor="start">Quản lý điểm theo môn</text><circle cx="754" cy="534" r="4" fill="#f27622"/><text x="769" y="538" font-family="Arial" font-size="11" font-weight="500" fill="#292d34" text-anchor="start">Gửi thông báo tới lớp</text><circle cx="754" cy="579" r="4" fill="#f27622"/><text x="769" y="583" font-family="Arial" font-size="11" font-weight="500" fill="#292d34" text-anchor="start">Duyệt đơn xin nghỉ học</text></svg>